<?xml version="1.0" standalone="no"?>
<!DOCTYPE svg PUBLIC "-//W3C//DTD SVG 20010904//EN"
 "http://www.w3.org/TR/2001/REC-SVG-20010904/DTD/svg10.dtd">
<svg version="1.0" xmlns="http://www.w3.org/2000/svg"
 width="40.000000pt" height="40.000000pt" viewBox="0 0 512.000000 512.000000"
 preserveAspectRatio="xMidYMid meet">

<g transform="translate(0.000000,512.000000) scale(0.100000,-0.100000)"
fill="#ffffff" stroke="none">
<path d="M362 4810 c-66 -40 -87 -109 -56 -177 32 -67 34 -67 378 -73 l310 -5
7 -35 c4 -19 67 -393 139 -830 72 -437 160 -959 195 -1160 36 -201 67 -379 70
-396 5 -30 3 -32 -80 -73 -115 -57 -197 -134 -251 -237 -52 -98 -65 -155 -65
-266 0 -159 58 -297 171 -401 76 -70 148 -110 247 -134 38 -10 69 -18 71 -19
1 -1 -7 -23 -19 -50 -40 -92 -52 -148 -52 -239 -1 -255 158 -467 413 -550 74
-24 226 -24 300 0 215 69 363 228 406 435 20 94 12 199 -22 295 -14 39 -27 78
-31 88 -5 16 23 17 495 17 l501 0 -23 -52 c-35 -81 -47 -143 -47 -242 1 -150
48 -270 150 -378 67 -71 140 -119 239 -155 85 -32 234 -35 327 -8 172 49 326
198 387 373 19 55 23 86 22 177 -1 95 -5 120 -28 180 -15 39 -30 77 -33 86 -4
15 10 17 119 21 134 4 173 16 205 64 37 57 8 163 -54 195 -24 12 -276 15
-1658 19 l-1630 5 -45 27 c-91 54 -133 126 -138 239 -3 60 0 86 16 122 27 61
86 123 146 155 l51 27 1480 5 c848 3 1486 9 1495 14 40 24 60 52 70 100 13 66
91 512 135 776 120 720 155 946 149 978 -9 47 -62 97 -110 105 -22 4 -778 7
-1680 7 l-1642 0 -5 23 c-3 12 -36 207 -72 432 -39 235 -75 428 -86 453 -14
33 -28 47 -61 62 -40 18 -68 20 -408 20 -347 0 -367 -1 -398 -20z m1592 -1282
c17 -99 34 -253 30 -260 -3 -4 -113 -8 -245 -8 -279 0 -248 -16 -274 145 -8
55 -18 112 -21 128 l-6 27 256 0 255 0 5 -32z m894 -115 l-3 -148 -290 0 -290
0 -17 115 c-9 63 -17 130 -17 148 l-1 32 310 0 311 0 -3 -147z m897 115 c-3
-18 -12 -82 -20 -143 -8 -60 -19 -113 -23 -117 -5 -5 -136 -7 -293 -6 l-284 3
-3 134 c-1 74 0 141 2 148 4 10 70 13 316 13 l311 0 -6 -32z m785 25 c1 -34
-46 -280 -54 -285 -6 -4 -116 -8 -244 -8 -199 0 -233 2 -238 15 -4 9 2 76 11
150 l18 135 253 0 c140 0 254 -3 254 -7z m-2486 -685 c9 -68 16 -133 16 -145
l0 -23 -234 0 c-129 0 -237 4 -240 8 -6 10 -46 241 -46 266 0 14 25 16 244 16
l243 0 17 -122z m806 -23 l0 -145 -255 0 c-140 0 -255 2 -255 5 0 8 -30 229
-35 258 l-4 27 274 0 275 0 0 -145z m820 135 c0 -15 -30 -233 -35 -257 l-5
-23 -255 0 -255 0 0 145 0 145 275 0 c170 0 275 -4 275 -10z m766 -7 c-2 -10
-10 -52 -16 -93 -6 -41 -16 -99 -21 -127 l-10 -53 -240 0 c-184 0 -239 3 -239
13 0 17 31 250 36 265 3 9 61 12 249 12 230 0 246 -1 241 -17z m-2314 -683 c9
-69 17 -133 18 -142 0 -17 -17 -18 -230 -18 -126 0 -230 3 -230 8 0 4 -9 59
-20 122 -11 63 -20 125 -20 138 l0 22 232 -2 232 -3 18 -125z m728 -15 l0
-145 -215 0 c-215 0 -215 0 -219 23 -5 25 -36 248 -36 260 0 4 106 7 235 7
l235 0 0 -145z m740 128 c0 -10 -7 -75 -17 -145 l-17 -128 -218 0 -218 0 0
145 0 145 235 0 c217 0 235 -1 235 -17z m750 3 c0 -8 -9 -61 -20 -117 -10 -57
-20 -115 -22 -129 l-3 -25 -233 -3 -233 -2 6 32 c5 31 35 247 35 255 0 2 106
3 235 3 194 0 235 -2 235 -14z m-2217 -1445 c201 -97 198 -399 -4 -500 -157
-78 -332 -10 -395 155 -25 65 -16 177 19 237 77 130 239 176 380 108z m2000
-5 c130 -76 179 -235 113 -369 -107 -219 -431 -207 -516 20 -65 173 39 355
219 382 63 9 134 -3 184 -33z"/>
</g>
</svg>
